<svg xmlns="http://www.w3.org/2000/svg" xmlns:xlink="http://www.w3.org/1999/xlink" width="1080" zoomAndPan="magnify" viewBox="0 0 810 809.999993" height="1080" preserveAspectRatio="xMidYMid meet" version="1.0"><defs><g/><clipPath id="14d82f4680"><path d="M 43.449219 346.949219 L 802 346.949219 L 802 500.160156 L 43.449219 500.160156 Z M 43.449219 346.949219 " clip-rule="nonzero"/></clipPath><clipPath id="87d605954d"><path d="M 118.449219 346.949219 L 726.929688 346.949219 C 768.351562 346.949219 801.929688 380.527344 801.929688 421.949219 L 801.929688 425.160156 C 801.929688 466.578125 768.351562 500.160156 726.929688 500.160156 L 118.449219 500.160156 C 77.027344 500.160156 43.449219 466.578125 43.449219 425.160156 L 43.449219 421.949219 C 43.449219 380.527344 77.027344 346.949219 118.449219 346.949219 Z M 118.449219 346.949219 " clip-rule="nonzero"/></clipPath><clipPath id="98c9f9ea21"><path d="M 720.824219 361.371094 L 774 361.371094 L 774 414.601562 L 720.824219 414.601562 Z M 720.824219 361.371094 " clip-rule="nonzero"/></clipPath><clipPath id="228f39bdd1"><path d="M 8.070312 309.839844 L 209.070312 309.839844 L 209.070312 500.339844 L 8.070312 500.339844 Z M 8.070312 309.839844 " clip-rule="nonzero"/></clipPath><clipPath id="54b6543ca6"><path d="M 8.070312 376 L 194 376 L 194 480 L 8.070312 480 Z M 8.070312 376 " clip-rule="nonzero"/></clipPath><clipPath id="ad25be12a8"><path d="M 8.070312 347 L 200 347 L 200 457 L 8.070312 457 Z M 8.070312 347 " clip-rule="nonzero"/></clipPath><clipPath id="55b2fc3418"><path d="M 10 361 L 172 361 L 172 500.339844 L 10 500.339844 Z M 10 361 " clip-rule="nonzero"/></clipPath><clipPath id="ba7eea355f"><path d="M 102.84375 323.84375 L 139.59375 323.84375 L 139.59375 360.59375 L 102.84375 360.59375 Z M 102.84375 323.84375 " clip-rule="nonzero"/></clipPath><clipPath id="982cd69c9c"><path d="M 139.894531 322.574219 L 159.394531 322.574219 L 159.394531 342.074219 L 139.894531 342.074219 Z M 139.894531 322.574219 " clip-rule="nonzero"/></clipPath><clipPath id="a8573b8a94"><path d="M 52.410156 332.472656 L 65.910156 332.472656 L 65.910156 345.972656 L 52.410156 345.972656 Z M 52.410156 332.472656 " clip-rule="nonzero"/></clipPath><clipPath id="13753568a7"><path d="M 71.9375 323.84375 L 80.9375 323.84375 L 80.9375 332.84375 L 71.9375 332.84375 Z M 71.9375 323.84375 " clip-rule="nonzero"/></clipPath><clipPath id="47705065de"><path d="M 73.8125 340.988281 L 83.5625 340.988281 L 83.5625 350.738281 L 73.8125 350.738281 Z M 73.8125 340.988281 " clip-rule="nonzero"/></clipPath><clipPath id="1b5c82d9d7"><path d="M 93.449219 327.773438 L 103 327.773438 L 103 337.523438 L 93.449219 337.523438 Z M 93.449219 327.773438 " clip-rule="nonzero"/></clipPath><clipPath id="1e89b7162e"><path d="M 149.792969 360.894531 L 167 360.894531 L 167 378 L 149.792969 378 Z M 149.792969 360.894531 " clip-rule="nonzero"/></clipPath><clipPath id="b2e2accd0b"><path d="M 163.886719 356.199219 L 173.636719 356.199219 L 173.636719 365.949219 L 163.886719 365.949219 Z M 163.886719 356.199219 " clip-rule="nonzero"/></clipPath><clipPath id="7a76f5a6d3"><path d="M 179.3125 374.859375 L 187.5625 374.859375 L 187.5625 383 L 179.3125 383 Z M 179.3125 374.859375 " clip-rule="nonzero"/></clipPath><clipPath id="edcd6db9c0"><path d="M 182.714844 368.597656 L 188.714844 368.597656 L 188.714844 374.597656 L 182.714844 374.597656 Z M 182.714844 368.597656 " clip-rule="nonzero"/></clipPath><clipPath id="ecdaba1e2a"><path d="M 173.277344 392.09375 L 198.777344 392.09375 L 198.777344 417.59375 L 173.277344 417.59375 Z M 173.277344 392.09375 " clip-rule="nonzero"/></clipPath><clipPath id="c5246fc666"><path d="M 190.542969 387.074219 L 200.292969 387.074219 L 200.292969 396.824219 L 190.542969 396.824219 Z M 190.542969 387.074219 " clip-rule="nonzero"/></clipPath></defs><g clip-path="url(#14d82f4680)"><g clip-path="url(#87d605954d)"><path fill="#ffffff" d="M 43.449219 346.949219 L 801.714844 346.949219 L 801.714844 500.160156 L 43.449219 500.160156 Z M 43.449219 346.949219 " fill-opacity="1" fill-rule="nonzero"/></g></g><g fill="#092f4e" fill-opacity="1"><g transform="translate(226.476446, 446.58924)"><g><path d="M 83.058594 -15.222656 C 83.152344 -20.234375 83.25 -22.257812 83.25 -27.269531 C 83.25 -28.519531 83.25 -29.871094 83.347656 -31.21875 C 83.347656 -31.605469 82.960938 -31.988281 82.480469 -31.988281 C 82.191406 -31.988281 76.023438 -31.894531 73.230469 -31.894531 C 70.722656 -31.894531 55.886719 -31.988281 55.5 -31.988281 C 54.730469 -31.796875 54.632812 -31.121094 54.632812 -30.640625 C 54.535156 -28.714844 54.632812 -25.535156 53.476562 -24.089844 C 52.800781 -23.316406 51.164062 -22.257812 48.175781 -22.355469 C 44.613281 -22.546875 40.949219 -23.511719 39.503906 -27.074219 C 38.734375 -28.90625 38.734375 -31.316406 39.601562 -33.144531 C 40.46875 -34.785156 41.238281 -35.941406 42.972656 -36.421875 C 44.902344 -37 74.386719 -37 82.574219 -36.613281 C 82.960938 -36.613281 83.347656 -37 83.347656 -37.386719 C 83.441406 -44.707031 83.539062 -51.933594 83.539062 -59.160156 C 83.539062 -59.257812 83.636719 -59.355469 83.636719 -59.449219 L 83.636719 -59.738281 C 83.636719 -60.222656 83.25 -60.511719 82.769531 -60.511719 L 27.941406 -60.511719 C 27.847656 -60.511719 27.847656 -60.511719 27.847656 -60.511719 C 18.691406 -60.511719 9.441406 -54.535156 7.707031 -51.644531 C 5.589844 -47.984375 4.527344 -46.925781 3.371094 -42.78125 C 2.890625 -41.335938 2.410156 -38.058594 2.410156 -35.167969 L 2.410156 -23.894531 C 2.410156 -23.800781 2.410156 -23.800781 2.410156 -23.703125 C 2.503906 -23.027344 2.410156 -15.707031 6.261719 -10.40625 C 10.792969 -4.238281 19.65625 0 25.726562 0 L 82.863281 0 C 83.25 0 83.636719 -0.289062 83.636719 -0.769531 C 83.636719 -0.769531 83.058594 -12.816406 83.058594 -15.222656 Z M 83.058594 -15.222656 "/></g></g></g><g fill="#092f4e" fill-opacity="1"><g transform="translate(312.902638, 446.58924)"><g><path d="M 81.804688 0 C 82.09375 0 82.382812 -0.289062 82.191406 -0.578125 C 81.417969 -2.601562 77.371094 -18.886719 76.792969 -21.390625 C 75.636719 -26.59375 74.578125 -31.699219 73.230469 -36.808594 C 71.976562 -42.011719 71.109375 -45.671875 69.566406 -50.777344 C 68.796875 -53.476562 68.316406 -57.425781 67.542969 -60.222656 C 67.542969 -60.414062 67.351562 -60.511719 67.160156 -60.511719 L 17.441406 -60.511719 C 17.152344 -60.511719 16.957031 -60.414062 16.957031 -60.125 C 16.667969 -58.390625 16.1875 -56.65625 15.707031 -54.921875 C 14.355469 -49.910156 10.308594 -29.386719 8.769531 -24.378906 C 7.226562 -19.367188 2.890625 -4.527344 2.3125 -2.121094 C 2.214844 -1.636719 2.023438 -1.058594 1.925781 -0.480469 C 1.832031 -0.191406 2.023438 0.0976562 2.3125 0.0976562 L 32.664062 0.0976562 C 32.953125 0.0976562 33.144531 -0.191406 33.144531 -0.386719 C 33.339844 -7.324219 34.6875 -14.164062 35.746094 -21.003906 C 36.710938 -27.847656 37.578125 -31.21875 38.832031 -38.347656 C 39.023438 -39.410156 39.890625 -42.011719 42.394531 -41.914062 C 44.226562 -41.816406 45.09375 -39.699219 45.285156 -36.902344 C 45.574219 -33.242188 47.40625 -25.050781 47.695312 -23.414062 C 47.886719 -21.96875 49.042969 -18.5 48.082031 -17.441406 C 47.214844 -16.574219 40.082031 -16.957031 39.410156 -17.054688 C 39.214844 -17.054688 38.925781 -16.863281 38.925781 -16.667969 C 38.347656 -13.007812 36.808594 -4.046875 36.710938 -0.386719 C 36.710938 -0.191406 36.902344 0.0976562 37.191406 0.0976562 L 81.804688 0.0976562 Z M 81.804688 0 "/></g></g></g><g fill="#092f4e" fill-opacity="1"><g transform="translate(397.305467, 446.58924)"><g><path d="M 82.671875 -60.511719 L 20.332031 -60.511719 C 18.980469 -60.511719 14.164062 -59.933594 10.597656 -57.621094 C 7.417969 -55.597656 5.394531 -51.839844 4.722656 -50.394531 C 2.121094 -44.707031 1.542969 -38.15625 3.566406 -32.375 C 4.238281 -30.253906 5.878906 -27.941406 8.191406 -26.015625 C 12.71875 -22.449219 35.652344 -23.027344 37.386719 -23.125 C 40.757812 -23.414062 44.035156 -22.933594 44.417969 -20.910156 C 44.902344 -18.402344 43.070312 -18.019531 41.914062 -17.730469 C 38.347656 -16.765625 5.78125 -17.632812 3.660156 -17.824219 C 3.179688 -17.824219 2.792969 -17.441406 2.792969 -16.957031 C 2.699219 -13.105469 2.988281 -9.25 2.699219 -5.394531 C 2.601562 -3.855469 2.503906 -2.3125 2.503906 -0.769531 C 2.503906 -0.289062 2.890625 0 3.277344 0 L 56.753906 0 C 56.847656 0 56.945312 0 57.042969 0 C 57.136719 0 57.332031 -0.0976562 57.523438 -0.0976562 C 58.96875 -0.0976562 60.511719 -0.0976562 61.957031 -0.0976562 C 65.328125 -0.289062 68.316406 -0.578125 71.6875 -1.542969 C 73.132812 -2.023438 76.890625 -3.660156 79.203125 -6.839844 C 81.515625 -10.117188 82.285156 -14.742188 82.382812 -15.707031 C 82.574219 -19.464844 82.191406 -23.027344 80.9375 -26.59375 C 79.683594 -29.964844 78.335938 -30.929688 75.636719 -33.242188 C 72.363281 -36.035156 68.988281 -36.613281 64.652344 -36.902344 C 60.511719 -37.191406 55.308594 -37.191406 51.066406 -37 C 47.503906 -36.902344 45.480469 -36.710938 42.105469 -37.191406 C 41.144531 -37.386719 39.3125 -37.578125 39.3125 -39.890625 C 39.3125 -42.300781 43.359375 -42.589844 48.175781 -42.78125 C 51.453125 -42.78125 56.753906 -42.589844 62.148438 -42.492188 C 69.953125 -42.492188 75.832031 -42.011719 82.382812 -41.816406 C 82.863281 -41.816406 83.25 -42.203125 83.25 -42.683594 C 83.152344 -44.226562 82.769531 -47.886719 82.769531 -49.429688 C 82.769531 -52.996094 83.25 -55.980469 82.863281 -60.316406 C 82.863281 -60.414062 82.769531 -60.414062 82.671875 -60.511719 Z M 82.671875 -60.511719 "/></g></g></g><g fill="#092f4e" fill-opacity="1"><g transform="translate(482.960852, 446.58924)"><g><path d="M 83.539062 -42.78125 C 82.960938 -46.828125 81.128906 -50.777344 78.433594 -53.765625 C 76.121094 -56.367188 69.375 -60.511719 64.171875 -60.511719 L 3.082031 -60.511719 C 2.792969 -60.511719 2.699219 -60.316406 2.699219 -60.222656 C 2.699219 -58.003906 2.699219 -55.886719 2.792969 -53.667969 C 2.890625 -42.78125 3.082031 -31.988281 3.082031 -21.101562 C 3.082031 -15.707031 2.601562 -1.058594 2.601562 -1.058594 C 2.601562 -0.480469 3.082031 0.0976562 3.660156 0.0976562 L 33.433594 0.0976562 C 34.011719 0.0976562 34.589844 -0.480469 34.496094 -1.15625 C 34.496094 -3.277344 34.496094 -6.457031 34.6875 -8.09375 C 34.976562 -10.886719 35.652344 -11.753906 39.121094 -11.753906 C 41.722656 -11.753906 52.609375 -11.851562 55.402344 -12.042969 C 59.546875 -12.238281 69.664062 -12.429688 75.058594 -17.34375 C 80.550781 -22.355469 81.804688 -26.59375 82.671875 -29.964844 C 83.25 -32.085938 83.441406 -34.207031 83.539062 -36.324219 C 83.730469 -38.445312 83.828125 -40.660156 83.539062 -42.78125 Z M 50.585938 -30.640625 C 48.851562 -30.542969 39.792969 -30.640625 37.386719 -30.738281 C 36.710938 -30.832031 34.6875 -31.796875 34.6875 -34.207031 C 34.6875 -36.613281 37.769531 -37.289062 38.636719 -37.386719 C 40.371094 -37.386719 48.753906 -37.289062 50.777344 -37.097656 C 51.355469 -37.097656 54.730469 -36.808594 54.730469 -33.917969 C 54.730469 -31.027344 51.453125 -30.738281 50.585938 -30.640625 Z M 50.585938 -30.640625 "/></g></g></g><g fill="#092f4e" fill-opacity="1"><g transform="translate(569.194339, 446.58924)"><g><path d="M 76.601562 -55.113281 C 75.347656 -56.269531 70.144531 -60.511719 62.246094 -60.511719 C 52.800781 -60.511719 22.449219 -60.511719 22.257812 -60.511719 C 16.089844 -59.835938 10.214844 -57.136719 6.648438 -51.933594 C 4.625 -49.042969 2.503906 -43.648438 2.503906 -37.578125 L 2.503906 -21.101562 C 2.503906 -15.417969 5.492188 -9.25 8.285156 -6.839844 C 11.5625 -4.046875 19.175781 -0.480469 25.246094 -0.0976562 C 25.726562 -0.0976562 56.078125 0 56.464844 0 C 62.917969 0 68.21875 -1.734375 72.074219 -3.660156 C 75.253906 -5.394531 78.144531 -7.804688 80.070312 -10.886719 C 82.285156 -14.453125 83.25 -18.597656 83.925781 -22.644531 C 84.214844 -25.050781 83.925781 -32.277344 83.925781 -39.503906 C 83.925781 -48.082031 77.371094 -54.34375 76.601562 -55.113281 Z M 52.707031 -27.652344 C 49.527344 -27.363281 34.011719 -27.75 31.507812 -27.558594 C 27.074219 -27.171875 26.882812 -34.011719 31.796875 -34.6875 C 34.976562 -35.074219 47.117188 -34.6875 52.320312 -34.878906 C 54.054688 -34.976562 56.269531 -33.144531 56.269531 -31.410156 C 56.269531 -29.097656 55.789062 -27.847656 52.707031 -27.652344 Z M 52.707031 -27.652344 "/></g></g></g><g fill="#092f4e" fill-opacity="1"><g transform="translate(656.005916, 446.58924)"><g><path d="M 83.539062 -9.636719 C 83.539062 -11.660156 83.441406 -13.683594 83.636719 -15.707031 C 83.730469 -17.054688 83.925781 -21.003906 83.925781 -21.003906 C 83.925781 -21.390625 83.828125 -21.777344 83.828125 -22.160156 C 83.828125 -22.257812 83.636719 -22.355469 83.539062 -22.355469 C 79.105469 -22.546875 62.246094 -21.777344 58.777344 -21.871094 C 56.269531 -21.96875 50.007812 -21.871094 47.503906 -22.160156 C 45.574219 -22.449219 44.613281 -22.355469 44.035156 -23.222656 C 43.359375 -24.089844 43.839844 -26.015625 43.746094 -27.652344 C 43.648438 -29.195312 43.359375 -55.789062 43.261719 -59.835938 C 43.261719 -60.222656 42.972656 -60.511719 42.589844 -60.511719 L 3.46875 -60.511719 C 3.082031 -60.511719 2.792969 -60.316406 2.792969 -59.933594 C 2.601562 -58.101562 2.699219 -56.269531 2.792969 -54.441406 C 2.890625 -52.222656 2.699219 -2.601562 2.699219 -2.601562 C 2.699219 -2.503906 2.699219 -2.410156 2.699219 -2.3125 C 2.699219 -2.214844 2.699219 -2.214844 2.699219 -2.121094 L 2.699219 -0.675781 C 2.699219 -0.289062 2.988281 0 3.371094 0 L 83.25 0 C 83.636719 0 83.925781 -0.289062 83.925781 -0.675781 C 83.925781 -0.675781 83.539062 -7.996094 83.539062 -9.636719 Z M 83.539062 -9.636719 "/></g></g></g><g fill="#092f4e" fill-opacity="1"><g transform="translate(228.108112, 475.331321)"><g><path d="M 10.828125 -13.421875 L 10.828125 -10.796875 L 7.28125 -10.796875 L 7.28125 0 L 4.015625 0 L 4.015625 -10.796875 L 0.453125 -10.796875 L 0.453125 -13.421875 Z M 10.828125 -13.421875 "/></g></g></g><g fill="#092f4e" fill-opacity="1"><g transform="translate(249.394673, 475.331321)"><g><path d="M 8.03125 0 L 5.234375 -5.0625 L 4.453125 -5.0625 L 4.453125 0 L 1.1875 0 L 1.1875 -13.421875 L 6.671875 -13.421875 C 7.722656 -13.421875 8.617188 -13.234375 9.359375 -12.859375 C 10.109375 -12.492188 10.664062 -11.988281 11.03125 -11.34375 C 11.40625 -10.695312 11.59375 -9.976562 11.59375 -9.1875 C 11.59375 -8.300781 11.34375 -7.503906 10.84375 -6.796875 C 10.34375 -6.097656 9.601562 -5.601562 8.625 -5.3125 L 11.71875 0 Z M 4.453125 -7.375 L 6.484375 -7.375 C 7.078125 -7.375 7.523438 -7.519531 7.828125 -7.8125 C 8.128906 -8.101562 8.28125 -8.519531 8.28125 -9.0625 C 8.28125 -9.570312 8.128906 -9.972656 7.828125 -10.265625 C 7.523438 -10.554688 7.078125 -10.703125 6.484375 -10.703125 L 4.453125 -10.703125 Z M 4.453125 -7.375 "/></g></g></g><g fill="#092f4e" fill-opacity="1"><g transform="translate(271.846743, 475.331321)"><g><path d="M 4.390625 -13.421875 L 4.390625 -5.390625 C 4.390625 -4.585938 4.585938 -3.96875 4.984375 -3.53125 C 5.378906 -3.101562 5.957031 -2.890625 6.71875 -2.890625 C 7.488281 -2.890625 8.078125 -3.101562 8.484375 -3.53125 C 8.890625 -3.96875 9.09375 -4.585938 9.09375 -5.390625 L 9.09375 -13.421875 L 12.359375 -13.421875 L 12.359375 -5.40625 C 12.359375 -4.207031 12.101562 -3.191406 11.59375 -2.359375 C 11.082031 -1.535156 10.394531 -0.910156 9.53125 -0.484375 C 8.675781 -0.0664062 7.722656 0.140625 6.671875 0.140625 C 5.609375 0.140625 4.660156 -0.0664062 3.828125 -0.484375 C 2.992188 -0.898438 2.332031 -1.523438 1.84375 -2.359375 C 1.363281 -3.191406 1.125 -4.207031 1.125 -5.40625 L 1.125 -13.421875 Z M 4.390625 -13.421875 "/></g></g></g><g fill="#092f4e" fill-opacity="1"><g transform="translate(295.311472, 475.331321)"><g><path d="M 6.03125 0.140625 C 5.050781 0.140625 4.171875 -0.0195312 3.390625 -0.34375 C 2.617188 -0.664062 2 -1.132812 1.53125 -1.75 C 1.070312 -2.375 0.828125 -3.128906 0.796875 -4.015625 L 4.28125 -4.015625 C 4.332031 -3.515625 4.503906 -3.132812 4.796875 -2.875 C 5.085938 -2.613281 5.46875 -2.484375 5.9375 -2.484375 C 6.425781 -2.484375 6.8125 -2.59375 7.09375 -2.8125 C 7.375 -3.039062 7.515625 -3.351562 7.515625 -3.75 C 7.515625 -4.082031 7.398438 -4.351562 7.171875 -4.5625 C 6.953125 -4.78125 6.675781 -4.957031 6.34375 -5.09375 C 6.019531 -5.238281 5.5625 -5.398438 4.96875 -5.578125 C 4.101562 -5.847656 3.394531 -6.113281 2.84375 -6.375 C 2.300781 -6.644531 1.832031 -7.039062 1.4375 -7.5625 C 1.039062 -8.082031 0.84375 -8.765625 0.84375 -9.609375 C 0.84375 -10.859375 1.289062 -11.835938 2.1875 -12.546875 C 3.09375 -13.253906 4.273438 -13.609375 5.734375 -13.609375 C 7.210938 -13.609375 8.398438 -13.253906 9.296875 -12.546875 C 10.203125 -11.835938 10.691406 -10.851562 10.765625 -9.59375 L 7.21875 -9.59375 C 7.195312 -10.03125 7.039062 -10.367188 6.75 -10.609375 C 6.457031 -10.859375 6.082031 -10.984375 5.625 -10.984375 C 5.226562 -10.984375 4.90625 -10.878906 4.65625 -10.671875 C 4.414062 -10.460938 4.296875 -10.160156 4.296875 -9.765625 C 4.296875 -9.328125 4.5 -8.988281 4.90625 -8.75 C 5.3125 -8.507812 5.953125 -8.25 6.828125 -7.96875 C 7.691406 -7.675781 8.394531 -7.394531 8.9375 -7.125 C 9.476562 -6.851562 9.945312 -6.460938 10.34375 -5.953125 C 10.738281 -5.453125 10.9375 -4.800781 10.9375 -4 C 10.9375 -3.226562 10.738281 -2.53125 10.34375 -1.90625 C 9.957031 -1.28125 9.394531 -0.78125 8.65625 -0.40625 C 7.914062 -0.0390625 7.039062 0.140625 6.03125 0.140625 Z M 6.03125 0.140625 "/></g></g></g><g fill="#092f4e" fill-opacity="1"><g transform="translate(317.056591, 475.331321)"><g><path d="M 10.828125 -13.421875 L 10.828125 -10.796875 L 7.28125 -10.796875 L 7.28125 0 L 4.015625 0 L 4.015625 -10.796875 L 0.453125 -10.796875 L 0.453125 -13.421875 Z M 10.828125 -13.421875 "/></g></g></g><g fill="#092f4e" fill-opacity="1"><g transform="translate(338.343157, 475.331321)"><g><path d="M 4.453125 -10.796875 L 4.453125 -8.078125 L 8.828125 -8.078125 L 8.828125 -5.5625 L 4.453125 -5.5625 L 4.453125 -2.625 L 9.40625 -2.625 L 9.40625 0 L 1.1875 0 L 1.1875 -13.421875 L 9.40625 -13.421875 L 9.40625 -10.796875 Z M 4.453125 -10.796875 "/></g></g></g><g fill="#092f4e" fill-opacity="1"><g transform="translate(358.67438, 475.331321)"><g><path d="M 6.203125 -13.421875 C 7.617188 -13.421875 8.851562 -13.140625 9.90625 -12.578125 C 10.96875 -12.015625 11.789062 -11.222656 12.375 -10.203125 C 12.957031 -9.191406 13.25 -8.023438 13.25 -6.703125 C 13.25 -5.390625 12.957031 -4.222656 12.375 -3.203125 C 11.789062 -2.191406 10.96875 -1.40625 9.90625 -0.84375 C 8.84375 -0.28125 7.609375 0 6.203125 0 L 1.1875 0 L 1.1875 -13.421875 Z M 6 -2.828125 C 7.238281 -2.828125 8.203125 -3.164062 8.890625 -3.84375 C 9.578125 -4.519531 9.921875 -5.472656 9.921875 -6.703125 C 9.921875 -7.941406 9.578125 -8.90625 8.890625 -9.59375 C 8.203125 -10.28125 7.238281 -10.625 6 -10.625 L 4.453125 -10.625 L 4.453125 -2.828125 Z M 6 -2.828125 "/></g></g></g><g fill="#092f4e" fill-opacity="1"><g transform="translate(382.559452, 475.331321)"><g/></g></g><g fill="#092f4e" fill-opacity="1"><g transform="translate(396.604548, 475.331321)"><g><path d="M 16.375 -13.421875 L 16.375 0 L 13.109375 0 L 13.109375 -8.046875 L 10.109375 0 L 7.46875 0 L 4.453125 -8.0625 L 4.453125 0 L 1.1875 0 L 1.1875 -13.421875 L 5.046875 -13.421875 L 8.8125 -4.125 L 12.53125 -13.421875 Z M 16.375 -13.421875 "/></g></g></g><g fill="#092f4e" fill-opacity="1"><g transform="translate(424.139012, 475.331321)"><g><path d="M 7.53125 0.140625 C 6.269531 0.140625 5.113281 -0.148438 4.0625 -0.734375 C 3.007812 -1.328125 2.171875 -2.148438 1.546875 -3.203125 C 0.929688 -4.253906 0.625 -5.4375 0.625 -6.75 C 0.625 -8.0625 0.929688 -9.238281 1.546875 -10.28125 C 2.171875 -11.320312 3.007812 -12.132812 4.0625 -12.71875 C 5.113281 -13.3125 6.269531 -13.609375 7.53125 -13.609375 C 8.789062 -13.609375 9.945312 -13.3125 11 -12.71875 C 12.050781 -12.132812 12.878906 -11.320312 13.484375 -10.28125 C 14.085938 -9.238281 14.390625 -8.0625 14.390625 -6.75 C 14.390625 -5.4375 14.082031 -4.253906 13.46875 -3.203125 C 12.863281 -2.148438 12.035156 -1.328125 10.984375 -0.734375 C 9.941406 -0.148438 8.789062 0.140625 7.53125 0.140625 Z M 7.53125 -2.84375 C 8.601562 -2.84375 9.457031 -3.195312 10.09375 -3.90625 C 10.738281 -4.625 11.0625 -5.570312 11.0625 -6.75 C 11.0625 -7.925781 10.738281 -8.867188 10.09375 -9.578125 C 9.457031 -10.285156 8.601562 -10.640625 7.53125 -10.640625 C 6.445312 -10.640625 5.582031 -10.289062 4.9375 -9.59375 C 4.289062 -8.894531 3.96875 -7.945312 3.96875 -6.75 C 3.96875 -5.5625 4.289062 -4.613281 4.9375 -3.90625 C 5.582031 -3.195312 6.445312 -2.84375 7.53125 -2.84375 Z M 7.53125 -2.84375 "/></g></g></g><g fill="#092f4e" fill-opacity="1"><g transform="translate(449.151391, 475.331321)"><g><path d="M 10.828125 -13.421875 L 10.828125 -10.796875 L 7.28125 -10.796875 L 7.28125 0 L 4.015625 0 L 4.015625 -10.796875 L 0.453125 -10.796875 L 0.453125 -13.421875 Z M 10.828125 -13.421875 "/></g></g></g><g fill="#092f4e" fill-opacity="1"><g transform="translate(470.437957, 475.331321)"><g><path d="M 7.53125 0.140625 C 6.269531 0.140625 5.113281 -0.148438 4.0625 -0.734375 C 3.007812 -1.328125 2.171875 -2.148438 1.546875 -3.203125 C 0.929688 -4.253906 0.625 -5.4375 0.625 -6.75 C 0.625 -8.0625 0.929688 -9.238281 1.546875 -10.28125 C 2.171875 -11.320312 3.007812 -12.132812 4.0625 -12.71875 C 5.113281 -13.3125 6.269531 -13.609375 7.53125 -13.609375 C 8.789062 -13.609375 9.945312 -13.3125 11 -12.71875 C 12.050781 -12.132812 12.878906 -11.320312 13.484375 -10.28125 C 14.085938 -9.238281 14.390625 -8.0625 14.390625 -6.75 C 14.390625 -5.4375 14.082031 -4.253906 13.46875 -3.203125 C 12.863281 -2.148438 12.035156 -1.328125 10.984375 -0.734375 C 9.941406 -0.148438 8.789062 0.140625 7.53125 0.140625 Z M 7.53125 -2.84375 C 8.601562 -2.84375 9.457031 -3.195312 10.09375 -3.90625 C 10.738281 -4.625 11.0625 -5.570312 11.0625 -6.75 C 11.0625 -7.925781 10.738281 -8.867188 10.09375 -9.578125 C 9.457031 -10.285156 8.601562 -10.640625 7.53125 -10.640625 C 6.445312 -10.640625 5.582031 -10.289062 4.9375 -9.59375 C 4.289062 -8.894531 3.96875 -7.945312 3.96875 -6.75 C 3.96875 -5.5625 4.289062 -4.613281 4.9375 -3.90625 C 5.582031 -3.195312 6.445312 -2.84375 7.53125 -2.84375 Z M 7.53125 -2.84375 "/></g></g></g><g fill="#092f4e" fill-opacity="1"><g transform="translate(495.450336, 475.331321)"><g><path d="M 8.03125 0 L 5.234375 -5.0625 L 4.453125 -5.0625 L 4.453125 0 L 1.1875 0 L 1.1875 -13.421875 L 6.671875 -13.421875 C 7.722656 -13.421875 8.617188 -13.234375 9.359375 -12.859375 C 10.109375 -12.492188 10.664062 -11.988281 11.03125 -11.34375 C 11.40625 -10.695312 11.59375 -9.976562 11.59375 -9.1875 C 11.59375 -8.300781 11.34375 -7.503906 10.84375 -6.796875 C 10.34375 -6.097656 9.601562 -5.601562 8.625 -5.3125 L 11.71875 0 Z M 4.453125 -7.375 L 6.484375 -7.375 C 7.078125 -7.375 7.523438 -7.519531 7.828125 -7.8125 C 8.128906 -8.101562 8.28125 -8.519531 8.28125 -9.0625 C 8.28125 -9.570312 8.128906 -9.972656 7.828125 -10.265625 C 7.523438 -10.554688 7.078125 -10.703125 6.484375 -10.703125 L 4.453125 -10.703125 Z M 4.453125 -7.375 "/></g></g></g><g fill="#092f4e" fill-opacity="1"><g transform="translate(517.902402, 475.331321)"><g><path d="M 9.3125 -6.875 C 10.082031 -6.707031 10.703125 -6.320312 11.171875 -5.71875 C 11.648438 -5.113281 11.890625 -4.425781 11.890625 -3.65625 C 11.890625 -2.53125 11.492188 -1.640625 10.703125 -0.984375 C 9.921875 -0.328125 8.832031 0 7.4375 0 L 1.1875 0 L 1.1875 -13.421875 L 7.21875 -13.421875 C 8.582031 -13.421875 9.648438 -13.109375 10.421875 -12.484375 C 11.191406 -11.859375 11.578125 -11.007812 11.578125 -9.9375 C 11.578125 -9.144531 11.367188 -8.488281 10.953125 -7.96875 C 10.546875 -7.445312 10 -7.082031 9.3125 -6.875 Z M 4.453125 -7.984375 L 6.59375 -7.984375 C 7.125 -7.984375 7.53125 -8.097656 7.8125 -8.328125 C 8.101562 -8.566406 8.25 -8.914062 8.25 -9.375 C 8.25 -9.84375 8.101562 -10.195312 7.8125 -10.4375 C 7.53125 -10.675781 7.125 -10.796875 6.59375 -10.796875 L 4.453125 -10.796875 Z M 6.859375 -2.640625 C 7.410156 -2.640625 7.832031 -2.757812 8.125 -3 C 8.425781 -3.25 8.578125 -3.613281 8.578125 -4.09375 C 8.578125 -4.5625 8.421875 -4.925781 8.109375 -5.1875 C 7.796875 -5.457031 7.367188 -5.59375 6.828125 -5.59375 L 4.453125 -5.59375 L 4.453125 -2.640625 Z M 6.859375 -2.640625 "/></g></g></g><g fill="#092f4e" fill-opacity="1"><g transform="translate(540.488238, 475.331321)"><g><path d="M 4.453125 -13.421875 L 4.453125 0 L 1.1875 0 L 1.1875 -13.421875 Z M 4.453125 -13.421875 "/></g></g></g><g fill="#092f4e" fill-opacity="1"><g transform="translate(556.119199, 475.331321)"><g><path d="M 8.96875 0 L 4.453125 -5.921875 L 4.453125 0 L 1.1875 0 L 1.1875 -13.421875 L 4.453125 -13.421875 L 4.453125 -7.53125 L 8.921875 -13.421875 L 12.765625 -13.421875 L 7.5625 -6.84375 L 12.953125 0 Z M 8.96875 0 "/></g></g></g><g fill="#092f4e" fill-opacity="1"><g transform="translate(579.431083, 475.331321)"><g><path d="M 4.453125 -10.796875 L 4.453125 -8.078125 L 8.828125 -8.078125 L 8.828125 -5.5625 L 4.453125 -5.5625 L 4.453125 -2.625 L 9.40625 -2.625 L 9.40625 0 L 1.1875 0 L 1.1875 -13.421875 L 9.40625 -13.421875 L 9.40625 -10.796875 Z M 4.453125 -10.796875 "/></g></g></g><g fill="#092f4e" fill-opacity="1"><g transform="translate(599.762288, 475.331321)"><g/></g></g><g fill="#092f4e" fill-opacity="1"><g transform="translate(613.807384, 475.331321)"><g><path d="M 8.03125 0 L 5.234375 -5.0625 L 4.453125 -5.0625 L 4.453125 0 L 1.1875 0 L 1.1875 -13.421875 L 6.671875 -13.421875 C 7.722656 -13.421875 8.617188 -13.234375 9.359375 -12.859375 C 10.109375 -12.492188 10.664062 -11.988281 11.03125 -11.34375 C 11.40625 -10.695312 11.59375 -9.976562 11.59375 -9.1875 C 11.59375 -8.300781 11.34375 -7.503906 10.84375 -6.796875 C 10.34375 -6.097656 9.601562 -5.601562 8.625 -5.3125 L 11.71875 0 Z M 4.453125 -7.375 L 6.484375 -7.375 C 7.078125 -7.375 7.523438 -7.519531 7.828125 -7.8125 C 8.128906 -8.101562 8.28125 -8.519531 8.28125 -9.0625 C 8.28125 -9.570312 8.128906 -9.972656 7.828125 -10.265625 C 7.523438 -10.554688 7.078125 -10.703125 6.484375 -10.703125 L 4.453125 -10.703125 Z M 4.453125 -7.375 "/></g></g></g><g fill="#092f4e" fill-opacity="1"><g transform="translate(636.259467, 475.331321)"><g><path d="M 4.453125 -10.796875 L 4.453125 -8.078125 L 8.828125 -8.078125 L 8.828125 -5.5625 L 4.453125 -5.5625 L 4.453125 -2.625 L 9.40625 -2.625 L 9.40625 0 L 1.1875 0 L 1.1875 -13.421875 L 9.40625 -13.421875 L 9.40625 -10.796875 Z M 4.453125 -10.796875 "/></g></g></g><g fill="#092f4e" fill-opacity="1"><g transform="translate(656.590672, 475.331321)"><g><path d="M 13.1875 0 L 9.921875 0 L 4.453125 -8.28125 L 4.453125 0 L 1.1875 0 L 1.1875 -13.421875 L 4.453125 -13.421875 L 9.921875 -5.109375 L 9.921875 -13.421875 L 13.1875 -13.421875 Z M 13.1875 0 "/></g></g></g><g fill="#092f4e" fill-opacity="1"><g transform="translate(680.953407, 475.331321)"><g><path d="M 10.828125 -13.421875 L 10.828125 -10.796875 L 7.28125 -10.796875 L 7.28125 0 L 4.015625 0 L 4.015625 -10.796875 L 0.453125 -10.796875 L 0.453125 -13.421875 Z M 10.828125 -13.421875 "/></g></g></g><g fill="#092f4e" fill-opacity="1"><g transform="translate(702.239973, 475.331321)"><g><path d="M 9.53125 -2.375 L 4.53125 -2.375 L 3.71875 0 L 0.3125 0 L 5.15625 -13.421875 L 8.9375 -13.421875 L 13.796875 0 L 10.34375 0 Z M 8.6875 -4.890625 L 7.03125 -9.796875 L 5.390625 -4.890625 Z M 8.6875 -4.890625 "/></g></g></g><g fill="#092f4e" fill-opacity="1"><g transform="translate(726.316131, 475.331321)"><g><path d="M 4.453125 -2.515625 L 8.734375 -2.515625 L 8.734375 0 L 1.1875 0 L 1.1875 -13.421875 L 4.453125 -13.421875 Z M 4.453125 -2.515625 "/></g></g></g><g clip-path="url(#98c9f9ea21)"><path fill="#092f4e" d="M 747.25 361.371094 C 744.671875 383.132812 742.585938 385.222656 720.824219 387.796875 C 720.867188 387.800781 720.914062 387.808594 720.957031 387.8125 C 742.59375 390.382812 744.679688 392.507812 747.25 414.222656 C 749.824219 392.460938 751.910156 390.371094 773.675781 387.796875 C 751.910156 385.222656 749.824219 383.132812 747.25 361.371094 Z M 747.25 361.371094 " fill-opacity="1" fill-rule="nonzero"/></g><g clip-path="url(#228f39bdd1)"><path fill="#052f50" d="M 209.070312 405.089844 C 209.070312 406.652344 209.03125 408.207031 208.949219 409.765625 C 208.867188 411.320312 208.746094 412.875 208.585938 414.425781 C 208.425781 415.980469 208.222656 417.523438 207.984375 419.066406 C 207.742188 420.609375 207.460938 422.144531 207.140625 423.671875 C 206.816406 425.203125 206.457031 426.722656 206.058594 428.234375 C 205.660156 429.746094 205.21875 431.25 204.742188 432.742188 C 204.265625 434.230469 203.75 435.710938 203.195312 437.179688 C 202.640625 438.648438 202.050781 440.101562 201.421875 441.539062 C 200.789062 442.980469 200.125 444.40625 199.421875 445.816406 C 198.71875 447.222656 197.980469 448.617188 197.203125 449.992188 C 196.429688 451.367188 195.617188 452.722656 194.773438 454.058594 C 193.925781 455.394531 193.046875 456.710938 192.132812 458.007812 C 191.21875 459.304688 190.273438 460.578125 189.292969 461.828125 C 188.3125 463.082031 187.300781 464.308594 186.257812 465.515625 C 185.214844 466.71875 184.140625 467.898438 183.035156 469.054688 C 181.929688 470.210938 180.796875 471.339844 179.632812 472.441406 C 178.472656 473.542969 177.28125 474.617188 176.0625 475.664062 C 174.84375 476.710938 173.597656 477.730469 172.328125 478.71875 C 171.054688 479.707031 169.757812 480.664062 168.4375 481.59375 C 167.117188 482.523438 165.773438 483.421875 164.40625 484.285156 C 163.039062 485.152344 161.648438 485.984375 160.238281 486.789062 C 158.828125 487.589844 157.394531 488.355469 155.945312 489.089844 C 154.496094 489.828125 153.027344 490.527344 151.539062 491.195312 C 150.050781 491.859375 148.550781 492.492188 147.03125 493.089844 C 145.511719 493.683594 143.976562 494.246094 142.425781 494.769531 C 140.878906 495.296875 139.316406 495.785156 137.742188 496.238281 C 136.171875 496.6875 134.585938 497.105469 132.988281 497.484375 C 131.394531 497.863281 129.789062 498.203125 128.175781 498.507812 C 126.5625 498.8125 124.945312 499.078125 123.316406 499.308594 C 121.691406 499.535156 120.058594 499.726562 118.421875 499.878906 C 116.785156 500.03125 115.144531 500.148438 113.5 500.222656 C 111.859375 500.300781 110.214844 500.339844 108.570312 500.339844 C 106.925781 500.339844 105.28125 500.300781 103.640625 500.222656 C 101.996094 500.148438 100.355469 500.03125 98.71875 499.878906 C 97.082031 499.726562 95.449219 499.535156 93.824219 499.308594 C 92.195312 499.078125 90.578125 498.8125 88.964844 498.507812 C 87.351562 498.203125 85.746094 497.863281 84.152344 497.484375 C 82.554688 497.105469 80.96875 496.6875 79.398438 496.238281 C 77.824219 495.785156 76.261719 495.296875 74.710938 494.769531 C 73.164062 494.246094 71.628906 493.683594 70.109375 493.089844 C 68.589844 492.492188 67.085938 491.859375 65.601562 491.195312 C 64.113281 490.527344 62.644531 489.828125 61.195312 489.089844 C 59.746094 488.355469 58.3125 487.589844 56.902344 486.789062 C 55.492188 485.984375 54.101562 485.152344 52.734375 484.285156 C 51.367188 483.421875 50.023438 482.523438 48.703125 481.59375 C 47.382812 480.664062 46.085938 479.707031 44.8125 478.71875 C 43.542969 477.730469 42.296875 476.710938 41.078125 475.664062 C 39.859375 474.617188 38.667969 473.542969 37.507812 472.441406 C 36.34375 471.339844 35.210938 470.210938 34.105469 469.054688 C 33 467.898438 31.925781 466.71875 30.882812 465.515625 C 29.839844 464.308594 28.828125 463.082031 27.847656 461.828125 C 26.867188 460.578125 25.921875 459.304688 25.007812 458.007812 C 24.09375 456.710938 23.214844 455.394531 22.367188 454.058594 C 21.523438 452.722656 20.710938 451.367188 19.9375 449.992188 C 19.160156 448.617188 18.421875 447.222656 17.71875 445.816406 C 17.015625 444.40625 16.351562 442.980469 15.71875 441.539062 C 15.089844 440.101562 14.5 438.648438 13.945312 437.179688 C 13.390625 435.710938 12.875 434.230469 12.398438 432.742188 C 11.921875 431.25 11.480469 429.746094 11.082031 428.234375 C 10.683594 426.722656 10.320312 425.203125 10 423.671875 C 9.679688 422.144531 9.398438 420.609375 9.15625 419.066406 C 8.917969 417.523438 8.714844 415.980469 8.554688 414.425781 C 8.394531 412.875 8.273438 411.320312 8.191406 409.765625 C 8.109375 408.207031 8.070312 406.652344 8.070312 405.089844 C 8.070312 403.53125 8.109375 401.976562 8.191406 400.417969 C 8.273438 398.859375 8.394531 397.308594 8.554688 395.753906 C 8.714844 394.203125 8.917969 392.65625 9.15625 391.117188 C 9.398438 389.574219 9.679688 388.039062 10 386.511719 C 10.320312 384.980469 10.683594 383.460938 11.082031 381.949219 C 11.480469 380.4375 11.921875 378.933594 12.398438 377.441406 C 12.875 375.953125 13.390625 374.472656 13.945312 373.003906 C 14.5 371.535156 15.089844 370.082031 15.71875 368.640625 C 16.351562 367.203125 17.015625 365.777344 17.71875 364.367188 C 18.421875 362.960938 19.160156 361.566406 19.9375 360.191406 C 20.710938 358.816406 21.523438 357.460938 22.367188 356.125 C 23.214844 354.789062 24.09375 353.472656 25.007812 352.175781 C 25.921875 350.878906 26.867188 349.605469 27.847656 348.351562 C 28.828125 347.101562 29.839844 345.871094 30.882812 344.667969 C 31.925781 343.460938 33 342.28125 34.105469 341.128906 C 35.210938 339.972656 36.34375 338.84375 37.507812 337.742188 C 38.667969 336.640625 39.859375 335.566406 41.078125 334.519531 C 42.296875 333.472656 43.542969 332.453125 44.8125 331.464844 C 46.085938 330.476562 47.382812 329.515625 48.703125 328.589844 C 50.023438 327.660156 51.367188 326.761719 52.734375 325.898438 C 54.101562 325.03125 55.492188 324.195312 56.902344 323.394531 C 58.3125 322.59375 59.746094 321.828125 61.195312 321.089844 C 62.644531 320.355469 64.113281 319.65625 65.601562 318.988281 C 67.085938 318.324219 68.589844 317.691406 70.109375 317.09375 C 71.628906 316.5 73.164062 315.9375 74.710938 315.414062 C 76.261719 314.886719 77.824219 314.398438 79.398438 313.945312 C 80.96875 313.492188 82.554688 313.078125 84.152344 312.699219 C 85.746094 312.320312 87.351562 311.980469 88.964844 311.675781 C 90.578125 311.371094 92.195312 311.105469 93.824219 310.875 C 95.449219 310.648438 97.082031 310.457031 98.71875 310.304688 C 100.355469 310.152344 101.996094 310.035156 103.640625 309.960938 C 105.28125 309.882812 106.925781 309.84375 108.570312 309.84375 C 110.214844 309.84375 111.859375 309.882812 113.5 309.960938 C 115.144531 310.035156 116.785156 310.152344 118.421875 310.304688 C 120.058594 310.457031 121.691406 310.648438 123.316406 310.875 C 124.945312 311.105469 126.5625 311.371094 128.175781 311.675781 C 129.789062 311.980469 131.394531 312.320312 132.988281 312.699219 C 134.585938 313.078125 136.171875 313.492188 137.742188 313.945312 C 139.316406 314.398438 140.878906 314.886719 142.425781 315.414062 C 143.976562 315.9375 145.511719 316.5 147.03125 317.09375 C 148.550781 317.691406 150.050781 318.324219 151.539062 318.988281 C 153.027344 319.65625 154.496094 320.355469 155.945312 321.089844 C 157.394531 321.828125 158.828125 322.59375 160.238281 323.394531 C 161.648438 324.195312 163.039062 325.03125 164.40625 325.898438 C 165.773438 326.761719 167.117188 327.660156 168.4375 328.589844 C 169.757812 329.515625 171.054688 330.476562 172.328125 331.464844 C 173.597656 332.453125 174.84375 333.472656 176.0625 334.519531 C 177.28125 335.566406 178.472656 336.640625 179.632812 337.742188 C 180.796875 338.84375 181.929688 339.972656 183.035156 341.128906 C 184.140625 342.28125 185.214844 343.460938 186.257812 344.667969 C 187.300781 345.871094 188.3125 347.101562 189.292969 348.351562 C 190.273438 349.605469 191.21875 350.878906 192.132812 352.175781 C 193.046875 353.472656 193.925781 354.789062 194.773438 356.125 C 195.617188 357.460938 196.429688 358.816406 197.203125 360.191406 C 197.980469 361.566406 198.71875 362.960938 199.421875 364.367188 C 200.125 365.777344 200.789062 367.203125 201.421875 368.640625 C 202.050781 370.082031 202.640625 371.535156 203.195312 373.003906 C 203.75 374.472656 204.265625 375.953125 204.742188 377.441406 C 205.21875 378.933594 205.660156 380.4375 206.058594 381.949219 C 206.457031 383.460938 206.816406 384.980469 207.140625 386.511719 C 207.460938 388.039062 207.742188 389.574219 207.984375 391.117188 C 208.222656 392.65625 208.425781 394.203125 208.585938 395.753906 C 208.746094 397.308594 208.867188 398.859375 208.949219 400.417969 C 209.03125 401.976562 209.070312 403.53125 209.070312 405.089844 Z M 209.070312 405.089844 " fill-opacity="1" fill-rule="nonzero"/></g><g clip-path="url(#54b6543ca6)"><path fill="#052f50" d="M 57.636719 400.238281 C 47.222656 401.09375 41.476562 401.261719 31.359375 401.109375 C 43.847656 410.445312 51.628906 414.15625 67.347656 417.167969 C 83.570312 422.480469 92.449219 425.824219 107.324219 432.734375 L 93.875 429.496094 L 77.3125 424.761719 L 60.875 419.535156 L 76.9375 429.496094 L 90.261719 439.082031 C 84.429688 437.476562 80.960938 436.605469 74.324219 435.472656 L 65.730469 428.125 C 61.222656 424.851562 58.5 423.828125 53.527344 422.523438 C 47.960938 421.746094 45.066406 421.976562 40.074219 422.894531 C 32.9375 425.542969 29.894531 427.511719 25.878906 432.730469 C 31.550781 432.953125 38.367188 432.523438 43.667969 432.1875 C 46.121094 432.035156 48.25 431.898438 49.789062 431.859375 C 53.6875 431.761719 58.484375 434.277344 64.851562 437.617188 C 66.417969 438.4375 68.074219 439.308594 69.839844 440.203125 L 85.53125 449.167969 C 83.289062 448.652344 81.4375 448.222656 79.683594 447.816406 C 76.460938 447.070312 73.574219 446.398438 69.21875 445.429688 C 62.492188 443.9375 47.546875 440.824219 47.546875 440.824219 C 38.820312 439.59375 33.980469 439.0625 25.378906 438.210938 C 35.605469 441.9375 41.320312 444.019531 51.285156 447.671875 L 60.875 451.28125 C 58.339844 450.765625 56.925781 450.457031 54.398438 449.914062 C 49.035156 448.832031 46.039062 448.386719 40.699219 447.671875 C 33.191406 446.542969 28.746094 446 21.269531 445.429688 L 8.941406 444.808594 L 30.113281 452.402344 L 51.285156 455.265625 L 72.703125 459.375 C 76.160156 461.035156 78.15625 461.832031 81.917969 462.863281 L 116.292969 462.613281 C 120.015625 462.269531 121.742188 460.921875 124.636719 457.882812 L 141.695312 424.640625 L 143.566406 423.144531 L 148.171875 431.363281 C 145.613281 433.828125 144.332031 435.113281 142.570312 437.710938 C 139.300781 442.253906 137.585938 450.410156 137.585938 451.40625 L 137.585938 459.003906 C 143.054688 451.539062 146.511719 447.566406 153.402344 440.949219 C 148.019531 447.539062 144.792969 452.515625 138.707031 463.359375 L 142.691406 462.613281 L 144.4375 465.851562 C 151.410156 475.0625 156.890625 479.296875 169.09375 479.296875 C 181.300781 479.296875 188.769531 469.835938 191.511719 463.484375 C 194.25 457.136719 193.378906 448.667969 190.515625 442.941406 C 189.667969 440.859375 188.726562 439.433594 186.53125 436.589844 L 187.027344 435.84375 C 184.949219 432.6875 182.917969 430.613281 179.679688 428.621094 C 176.441406 426.628906 168.878906 424.515625 160.128906 425.882812 L 155.144531 415.675781 C 155.144531 415.675781 162.371094 417.292969 162.992188 417.292969 C 163.613281 417.292969 163.988281 410.070312 163.613281 407.082031 C 163.242188 404.09375 159.503906 396.25 154.273438 393.261719 C 149.816406 390.714844 149.789062 390.710938 147.332031 390.140625 C 146.910156 390.042969 146.410156 389.925781 145.804688 389.777344 C 145.804688 389.777344 142.691406 382.058594 141.324219 380.066406 C 140.042969 378.207031 138.765625 377.972656 134.753906 377.246094 L 133.851562 377.078125 C 129.117188 376.210938 125.316406 375.890625 125.007812 376.578125 C 123.359375 378.558594 123.675781 379.375 125.382812 381.0625 C 129.269531 382.214844 131.5 382.683594 135.71875 382.683594 L 139.332031 387.785156 L 135.59375 388.90625 C 136.453125 392.398438 137.058594 394.21875 138.582031 397 L 136.339844 398.742188 C 129.5 393.421875 124.871094 392.300781 115.296875 393.265625 C 106.375 395.75 100.0625 398.574219 85.53125 407.210938 L 67.347656 406.710938 C 63.222656 405.019531 61.125 403.539062 57.636719 400.238281 Z M 36.589844 462.238281 L 42.191406 462.238281 C 42.542969 462.472656 42.855469 462.699219 43.144531 462.90625 C 44.644531 463.980469 45.605469 464.667969 48.667969 464.605469 C 52.324219 464.527344 55.84375 461.796875 54.894531 461.867188 L 42.191406 459.75 L 32.976562 458.753906 L 10.1875 458.378906 L 10.1875 462.238281 L 24.011719 462.238281 C 24.011719 462.238281 27 470.582031 33.351562 474.691406 C 39.703125 478.796875 46.550781 479.792969 52.28125 479.171875 C 58.007812 478.550781 66.910156 473.367188 72.082031 464.605469 L 61.246094 462.988281 C 56.519531 467.820312 53.53125 469.085938 47.671875 469.085938 C 42.402344 467.847656 39.894531 466.472656 36.589844 462.238281 Z M 36.589844 462.238281 " fill-opacity="1" fill-rule="evenodd"/></g><g clip-path="url(#ad25be12a8)"><path fill="#ffffff" d="M 150.664062 383.800781 L 156.640625 386.539062 C 163.359375 391.507812 165.847656 394.53125 168.597656 400.734375 C 169.84375 403.613281 169.851562 403.894531 170.464844 407.832031 C 170.761719 411.980469 170.582031 414.394531 169.964844 418.164062 C 172.8125 418.6875 174.5625 419.195312 177.8125 420.28125 C 181.640625 421.957031 183.746094 423.027344 187.027344 425.636719 C 188.996094 427.386719 189.765625 428.28125 190.765625 429.496094 C 193.25 432.214844 194.394531 434.058594 196.242188 437.585938 C 198.113281 441.605469 198.785156 443.589844 199.109375 446.550781 C 197.09375 450.546875 195.746094 452.71875 193.128906 456.511719 C 193.171875 454.175781 193.09375 452.867188 192.882812 450.535156 C 192.058594 446.035156 190.976562 443.695312 188.769531 439.703125 L 186.53125 436.589844 L 187.027344 435.84375 C 183.59375 431.195312 181.699219 429.8125 178.0625 427.75 C 174.082031 426.261719 171.691406 425.742188 167.101562 425.386719 C 164.316406 425.378906 162.789062 425.46875 160.128906 425.882812 L 155.148438 415.675781 L 163.117188 417.292969 C 163.734375 412.933594 164.160156 409.554688 163.367188 405.964844 C 162.570312 402.371094 159.945312 398.675781 156.640625 395.007812 C 152.46875 391.910156 149.722656 390.820312 145.433594 389.777344 C 143.695312 385.160156 143.109375 383.632812 140.328125 379.320312 C 139.1875 378.476562 139.011719 377.871094 135.347656 377.328125 L 129.742188 376.457031 L 125.757812 376.207031 C 124.800781 376.652344 124.308594 377.261719 123.886719 378.570312 C 124.015625 379.605469 125.058594 380.703125 125.257812 380.9375 C 125.457031 381.171875 128.570312 381.933594 131.484375 382.429688 C 133.117188 382.605469 134.035156 382.691406 135.71875 382.679688 C 137.335938 384.894531 138.136719 386.015625 139.332031 387.785156 L 135.59375 388.90625 C 136.492188 392.183594 136.96875 394.03125 138.582031 397 L 136.34375 398.742188 C 134.589844 397.429688 133.609375 396.769531 131.859375 395.628906 C 127.914062 393.816406 125.589844 393.214844 121.023438 393.015625 C 118.839844 392.984375 116.914062 393.015625 115.421875 393.261719 C 113.925781 393.511719 111.046875 394.421875 108.320312 395.503906 C 104.808594 396.851562 102.8125 397.753906 99.230469 399.488281 C 93.542969 402.53125 90.65625 404.210938 85.53125 407.207031 L 76.128906 406.957031 L 67.226562 406.710938 C 61.964844 404.511719 60.359375 402.664062 57.636719 400.234375 C 51.714844 400.628906 48.695312 400.9375 43.9375 401.105469 C 39.0625 401.367188 36.308594 401.246094 31.359375 401.105469 C 34.9375 403.886719 36.894531 405.304688 40.199219 407.332031 C 44.429688 409.671875 46.734375 411.082031 51.285156 412.933594 C 56.046875 414.515625 58.75 415.386719 64.359375 416.671875 C 66.804688 417.054688 68.335938 417.4375 71.335938 418.539062 L 82.542969 422.273438 L 89.144531 424.886719 L 95.867188 427.628906 L 99.605469 429.246094 L 107.324219 432.730469 L 97.488281 430.492188 L 87.027344 427.628906 L 77.0625 424.761719 L 60.875 419.660156 L 72.082031 426.507812 L 79.429688 431.238281 L 87.027344 436.714844 L 90.386719 439.207031 L 83.914062 437.464844 C 79.882812 436.554688 77.792969 436.160156 74.324219 435.59375 L 68.222656 430.242188 C 63.984375 426.726562 60.871094 424.828125 55.019531 422.894531 C 50.222656 421.96875 47.578125 421.859375 42.941406 422.398438 C 41.753906 422.609375 41.105469 422.710938 39.953125 422.894531 C 36.542969 424.109375 34.753906 424.980469 31.730469 426.753906 C 29.046875 428.898438 27.800781 430.214844 25.878906 432.730469 L 38.457031 432.605469 L 44.808594 432.109375 L 50.039062 431.859375 C 52.648438 432.046875 54.09375 432.347656 56.640625 433.601562 L 66.105469 438.210938 L 71.707031 441.199219 L 79.054688 445.429688 L 85.53125 449.292969 L 80.921875 448.171875 L 68.84375 445.429688 L 59.503906 443.316406 L 48.296875 440.949219 L 42.441406 440.203125 C 38.90625 439.660156 36.703125 439.414062 32.851562 438.957031 L 25.257812 438.210938 L 35.59375 441.820312 L 42.191406 444.3125 L 47.546875 446.304688 L 52.902344 448.171875 L 60.625 451.28125 L 49.789062 449.042969 L 43.6875 448.171875 L 38.082031 447.300781 L 32.480469 446.550781 L 17.285156 445.429688 C 15.082031 440.507812 13.894531 437.625 11.929688 432.109375 L 17.660156 432.109375 C 19.203125 429.519531 20.175781 428.011719 22.515625 425.011719 C 25.832031 421.929688 28.019531 420.359375 32.605469 417.914062 C 35.011719 416.867188 36.515625 416.304688 40.949219 415.550781 C 37.78125 414.3125 36.226562 413.523438 33.847656 411.9375 L 8.816406 411.9375 C 8.667969 408.140625 8.613281 406.082031 8.691406 403.722656 L 25.007812 403.722656 C 21.46875 399.976562 19.542969 397.835938 16.664062 393.636719 L 40.324219 393.886719 C 44.792969 393.742188 47.300781 393.652344 51.90625 393.140625 L 57.136719 393.015625 C 58.871094 393.160156 61.140625 393.675781 62.367188 395.753906 L 67.847656 395.378906 C 74.609375 394.667969 78.363281 394.328125 85.035156 393.761719 C 78.371094 395.902344 74.605469 396.878906 67.847656 398.367188 C 71.503906 398.296875 73.695312 398.226562 78.558594 397.871094 C 82.503906 397.84375 82.511719 397.878906 86.527344 397.496094 C 90.542969 397.113281 94.621094 394.011719 94.621094 394.011719 C 99.957031 391.011719 103.398438 389.082031 109.070312 387.039062 C 111.078125 386.453125 112.25 386.089844 115.296875 386.042969 C 115.46875 382.5 115.285156 380.652344 114.050781 377.203125 C 110.867188 372.148438 107.089844 369.523438 96.242188 365.25 C 91.582031 363.957031 88.945312 363.285156 84.160156 362.261719 C 74.730469 360.480469 69.644531 359.683594 60.75 358.402344 L 71.707031 363.507812 L 79.179688 367.367188 L 86.152344 370.726562 L 90.265625 373.09375 L 80.800781 370.230469 L 70.339844 367.117188 C 63.757812 365.308594 60.089844 364.3125 53.652344 362.636719 L 43.9375 360.394531 C 36.066406 358.6875 31.851562 357.699219 24.261719 356.410156 L 28.992188 347.945312 L 47.421875 349.4375 L 61.496094 350.808594 C 69.769531 351.589844 74.410156 352.078125 82.667969 353.546875 C 90.335938 354.667969 94.308594 355.628906 100.847656 357.902344 C 109.117188 361.757812 112.808594 364.273438 117.164062 369.609375 C 122.710938 368.6875 126.125 368.613281 132.730469 369.234375 C 138.652344 370.117188 142.445312 371.722656 144.4375 373.34375 C 146.429688 374.960938 148.871094 378.691406 150.664062 383.800781 Z M 150.664062 383.800781 " fill-opacity="1" fill-rule="nonzero"/></g><g clip-path="url(#55b2fc3418)"><path fill="#ffffff" d="M 32.480469 361.886719 L 21.269531 361.640625 C 18.957031 365.574219 17.738281 367.839844 15.914062 372.097656 L 32.726562 373.46875 L 56.515625 376.332031 L 73.328125 378.449219 L 83.914062 379.691406 L 87.898438 380.316406 L 92.503906 380.5625 L 86.402344 378.074219 L 82.417969 376.828125 L 70.089844 373.589844 C 62.875 371.921875 59.019531 370.828125 52.15625 368.859375 C 44.105469 366.644531 39.910156 364.960938 32.480469 361.886719 Z M 13.800781 377.453125 L 35.46875 377.824219 C 43.808594 380.757812 49.03125 381.863281 59.003906 383.179688 C 63.261719 383.773438 65.675781 384.050781 70.089844 384.300781 L 84.660156 385.667969 L 89.390625 386.167969 L 91.882812 386.789062 L 82.914062 387.535156 L 66.601562 388.035156 L 10.808594 388.035156 C 11.710938 383.835938 12.273438 381.496094 13.800781 377.453125 Z M 84.535156 462.738281 C 84.535156 462.738281 114.824219 462.707031 116.664062 462.613281 C 118.507812 462.519531 122.117188 460.863281 125.132812 457.136719 L 132.480469 442.441406 L 137.960938 431.984375 L 141.695312 424.515625 L 143.566406 422.894531 L 148.296875 431.363281 C 144.082031 435.175781 142.433594 437.660156 140.078125 442.441406 C 138.859375 445.648438 138.453125 447.335938 137.613281 450.800781 L 137.585938 450.910156 L 137.585938 458.753906 L 143.316406 451.53125 L 148.421875 445.804688 L 153.527344 440.824219 C 152.027344 442.691406 151.164062 443.804688 149.667969 445.804688 C 145.089844 452.273438 142.785156 456.238281 138.707031 463.359375 L 142.691406 462.488281 C 144.828125 466.503906 146.230469 468.699219 149.667969 471.828125 C 154.890625 477.695312 161.828125 479.414062 171.585938 479.171875 C 165.640625 483.535156 162.269531 485.722656 156.144531 488.882812 C 143.046875 495.570312 134.339844 498.011719 116.664062 500.089844 C 97.359375 501.074219 86.832031 498.902344 68.34375 492.246094 C 59.832031 488.796875 53.070312 484.464844 45.183594 479.046875 C 52.707031 479.976562 55.976562 478.609375 61.496094 475.5625 C 66.417969 472.078125 68.820312 469.738281 72.207031 464.605469 L 61.246094 462.988281 C 57.121094 467.09375 54.683594 468.496094 50.039062 469.085938 C 46.578125 469.046875 44.550781 468.691406 40.449219 466.222656 C 38.796875 464.890625 37.941406 463.933594 36.589844 462.238281 L 42.191406 462.238281 C 46.574219 465.011719 49.636719 465.511719 55.019531 461.992188 C 51.589844 461.183594 47.636719 460.585938 40.769531 459.546875 L 40.449219 459.5 C 35.035156 458.929688 31.753906 458.855469 25.378906 458.753906 L 19.03125 448.417969 L 30.488281 452.402344 C 35.191406 453.039062 38.699219 453.515625 42.394531 454 C 45.082031 454.351562 47.867188 454.710938 51.285156 455.144531 L 56.140625 456.140625 L 72.703125 459.375 C 75.847656 460.773438 77.621094 461.554688 81.917969 462.863281 Z M 84.535156 462.738281 " fill-opacity="1" fill-rule="evenodd"/></g><path fill="#ffffff" d="M 140.328125 393.015625 C 144.507812 392.558594 146.742188 392.5625 150.164062 393.886719 C 153.695312 395.90625 155.363281 397.210938 157.261719 400.113281 C 158.871094 402.804688 159.566406 404.21875 159.628906 406.210938 L 157.261719 402.851562 C 155.113281 399.984375 153.167969 398.511719 149.042969 396.003906 Z M 127.25 397.125 C 124.773438 396.683594 123.304688 396.671875 120.648438 396.75 C 115.785156 397.304688 112.199219 398.261719 105.457031 400.234375 C 111.453125 399.898438 114.769531 399.84375 120.527344 400.234375 C 123.570312 400.6875 125.160156 400.972656 127 401.730469 L 131.109375 404.96875 C 131.289062 405.140625 132.890625 407.683594 132.480469 409.324219 L 131.609375 411.316406 L 118.035156 410.695312 L 131.609375 413.433594 C 130.28125 414.9375 129.371094 415.355469 127.625 415.800781 C 130.773438 416.867188 132.074219 416.902344 134.101562 415.300781 C 135.476562 414.335938 136.035156 413.269531 136.714844 410.445312 C 136.714844 406.585938 136.339844 404.96875 134.972656 402.601562 C 133.472656 400.011719 131.511719 398.902344 127.25 397.125 Z M 99.605469 415.675781 L 111.558594 418.539062 L 118.78125 420.78125 L 123.265625 422.769531 L 126.003906 424.265625 L 123.265625 423.765625 L 120.527344 423.019531 L 113.179688 421.027344 L 107.074219 418.789062 Z M 130.238281 434.476562 L 124.136719 438.832031 L 117.535156 452.652344 C 115.71875 454.003906 114.671875 454.496094 112.804688 454.769531 L 83.789062 454.769531 C 81.386719 454.585938 80.300781 454.269531 78.433594 453.398438 C 76.566406 452.527344 73.453125 449.914062 73.453125 449.914062 C 74.417969 452.074219 75.425781 453.140625 77.3125 455.019531 C 79.734375 456.996094 81.390625 457.53125 84.660156 457.882812 L 113.800781 457.882812 C 116.085938 457.625 117.128906 457.335938 119.03125 456.015625 C 121.144531 454.144531 122.226562 452.707031 123.761719 448.667969 Z M 111.308594 444.808594 C 113.03125 444.808594 114.421875 443.414062 114.421875 441.695312 C 114.421875 439.976562 113.03125 438.582031 111.308594 438.582031 C 109.589844 438.582031 108.195312 439.976562 108.195312 441.695312 C 108.195312 443.414062 109.589844 444.808594 111.308594 444.808594 Z M 147.425781 407.207031 L 143.566406 407.957031 L 162.742188 443.191406 L 169.09375 454.519531 C 169.785156 453.957031 169.546875 453.03125 169.148438 451.492188 L 169.09375 451.28125 Z M 161.25 428.5 C 164.8125 427.917969 166.867188 427.785156 170.714844 428.125 C 174.90625 429.273438 177.015625 430.019531 179.554688 431.859375 C 181.523438 433.839844 182.75 435.609375 183.539062 437.960938 L 184.039062 440.328125 L 181.175781 436.964844 C 179.050781 435.574219 173.828125 432.359375 170.714844 432.359375 L 162.867188 432.359375 Z M 168.859375 440.664062 C 168.269531 440.566406 167.652344 440.460938 166.976562 440.328125 L 169.839844 447.300781 L 171.957031 451.28125 C 172.671875 453.378906 172.71875 454.347656 172.457031 455.890625 C 171.394531 457.484375 170.730469 458.246094 169.34375 459.128906 L 165.730469 459.25 C 164.238281 458.910156 163.585938 458.644531 162.492188 458.132812 C 162.808594 459.019531 163.21875 459.515625 164.609375 460.371094 C 166.003906 461.105469 168.582031 461.359375 169.34375 461.117188 C 171.972656 460.28125 172.527344 459.550781 173.898438 457.742188 L 174.074219 457.507812 C 174.609375 456.027344 174.558594 455 174.484375 453.503906 C 174.472656 453.273438 174.460938 453.03125 174.449219 452.777344 L 172.953125 449.042969 C 172.15625 447.6875 171.988281 447.125 171.957031 446.304688 C 176.261719 449.382812 177.691406 451.269531 177.8125 455.144531 C 177.4375 458.753906 176.191406 460.996094 173.453125 462.988281 C 171.710938 464.253906 168.472656 464.855469 164.984375 464.105469 C 159.800781 461.230469 159.039062 458.917969 157.761719 454.769531 C 158.085938 451.628906 158.433594 450.1875 159.257812 448.046875 L 157.140625 444.933594 C 155.410156 446.992188 154.628906 448.523438 153.777344 452.277344 C 153.597656 456.332031 153.75 458.488281 155.394531 461.867188 C 157.761719 465.351562 162.246094 468.839844 167.351562 469.210938 C 170.839844 469.210938 174.949219 468.085938 177.4375 465.726562 C 180.648438 462.679688 182.179688 458.628906 182.171875 454.769531 C 182.160156 450.554688 180.988281 447.796875 178.683594 445.679688 C 174.1875 441.554688 171.964844 441.183594 168.859375 440.664062 Z M 168.859375 440.664062 " fill-opacity="1" fill-rule="evenodd"/><g clip-path="url(#ba7eea355f)"><path fill="#ffffff" d="M 121.363281 323.84375 C 119.558594 339.09375 118.097656 340.558594 102.84375 342.363281 C 102.875 342.367188 102.90625 342.371094 102.9375 342.375 C 118.101562 344.175781 119.5625 345.664062 121.363281 360.886719 C 123.171875 345.632812 124.632812 344.167969 139.886719 342.363281 C 124.632812 340.558594 123.171875 339.09375 121.363281 323.84375 Z M 121.363281 323.84375 " fill-opacity="1" fill-rule="nonzero"/></g><g clip-path="url(#982cd69c9c)"><path fill="#ffffff" d="M 149.785156 322.574219 C 148.820312 330.722656 148.039062 331.503906 139.894531 332.464844 C 139.914062 332.46875 139.929688 332.46875 139.945312 332.472656 C 148.042969 333.433594 148.824219 334.230469 149.785156 342.355469 C 150.75 334.210938 151.53125 333.429688 159.675781 332.464844 C 151.53125 331.503906 150.75 330.722656 149.785156 322.574219 Z M 149.785156 322.574219 " fill-opacity="1" fill-rule="nonzero"/></g><g clip-path="url(#a8573b8a94)"><path fill="#ffffff" d="M 59.015625 332.472656 C 58.371094 337.910156 57.851562 338.429688 52.410156 339.074219 C 52.421875 339.078125 52.433594 339.078125 52.445312 339.078125 C 57.851562 339.722656 58.375 340.25 59.015625 345.679688 C 59.660156 340.242188 60.179688 339.71875 65.617188 339.074219 C 60.179688 338.429688 59.660156 337.910156 59.015625 332.472656 Z M 59.015625 332.472656 " fill-opacity="1" fill-rule="nonzero"/></g><g clip-path="url(#13753568a7)"><path fill="#ffffff" d="M 76.25 323.84375 C 75.828125 327.394531 75.488281 327.734375 71.9375 328.15625 C 71.945312 328.15625 71.953125 328.15625 71.960938 328.15625 C 75.492188 328.574219 75.832031 328.921875 76.25 332.46875 C 76.671875 328.914062 77.011719 328.574219 80.5625 328.15625 C 77.011719 327.734375 76.671875 327.394531 76.25 323.84375 Z M 76.25 323.84375 " fill-opacity="1" fill-rule="nonzero"/></g><g clip-path="url(#47705065de)"><path fill="#ffffff" d="M 78.503906 340.988281 C 78.046875 344.851562 77.675781 345.222656 73.8125 345.679688 C 73.820312 345.679688 73.828125 345.683594 73.835938 345.683594 C 77.679688 346.140625 78.046875 346.515625 78.503906 350.375 C 78.960938 346.507812 79.332031 346.136719 83.199219 345.679688 C 79.332031 345.222656 78.960938 344.851562 78.503906 340.988281 Z M 78.503906 340.988281 " fill-opacity="1" fill-rule="nonzero"/></g><g clip-path="url(#1b5c82d9d7)"><path fill="#ffffff" d="M 98.144531 327.773438 C 97.6875 331.640625 97.316406 332.011719 93.449219 332.46875 C 93.460938 332.46875 93.46875 332.46875 93.476562 332.472656 C 97.316406 332.925781 97.6875 333.304688 98.144531 337.160156 C 98.601562 333.296875 98.972656 332.925781 102.835938 332.46875 C 98.972656 332.011719 98.601562 331.640625 98.144531 327.773438 Z M 98.144531 327.773438 " fill-opacity="1" fill-rule="nonzero"/></g><g clip-path="url(#1e89b7162e)"><path fill="#ffffff" d="M 158.335938 360.894531 C 157.503906 367.929688 156.828125 368.605469 149.792969 369.4375 C 149.804688 369.4375 149.820312 369.441406 149.835938 369.441406 C 156.828125 370.273438 157.503906 370.960938 158.335938 377.980469 C 159.167969 370.945312 159.84375 370.269531 166.878906 369.4375 C 159.84375 368.605469 159.167969 367.929688 158.335938 360.894531 Z M 158.335938 360.894531 " fill-opacity="1" fill-rule="nonzero"/></g><g clip-path="url(#b2e2accd0b)"><path fill="#ffffff" d="M 168.578125 356.199219 C 168.121094 360.0625 167.75 360.433594 163.886719 360.890625 C 163.894531 360.890625 163.902344 360.894531 163.910156 360.894531 C 167.753906 361.351562 168.121094 361.726562 168.578125 365.585938 C 169.035156 361.71875 169.40625 361.347656 173.273438 360.890625 C 169.40625 360.433594 169.035156 360.0625 168.578125 356.199219 Z M 168.578125 356.199219 " fill-opacity="1" fill-rule="nonzero"/></g><g clip-path="url(#7a76f5a6d3)"><path fill="#ffffff" d="M 183.359375 374.859375 C 182.964844 378.195312 182.648438 378.515625 179.3125 378.910156 C 179.320312 378.910156 179.324219 378.910156 179.332031 378.910156 C 182.648438 379.304688 182.96875 379.628906 183.359375 382.957031 C 183.753906 379.625 184.074219 379.304688 187.410156 378.910156 C 184.074219 378.515625 183.753906 378.195312 183.359375 374.859375 Z M 183.359375 374.859375 " fill-opacity="1" fill-rule="nonzero"/></g><g clip-path="url(#edcd6db9c0)"><path fill="#ffffff" d="M 185.84375 368.597656 C 185.539062 371.171875 185.289062 371.421875 182.714844 371.726562 C 182.71875 371.726562 182.726562 371.726562 182.730469 371.726562 C 185.292969 372.03125 185.539062 372.28125 185.84375 374.855469 C 186.148438 372.277344 186.394531 372.03125 188.972656 371.726562 C 186.394531 371.421875 186.148438 371.171875 185.84375 368.597656 Z M 185.84375 368.597656 " fill-opacity="1" fill-rule="nonzero"/></g><g clip-path="url(#ecdaba1e2a)"><path fill="#ffffff" d="M 186.179688 392.09375 C 184.921875 402.71875 183.902344 403.738281 173.277344 404.996094 C 173.300781 405 173.320312 405 173.34375 405.003906 C 183.90625 406.257812 184.925781 407.296875 186.179688 417.898438 C 187.4375 407.273438 188.457031 406.253906 199.082031 404.996094 C 188.457031 403.738281 187.4375 402.71875 186.179688 392.09375 Z M 186.179688 392.09375 " fill-opacity="1" fill-rule="nonzero"/></g><g clip-path="url(#c5246fc666)"><path fill="#ffffff" d="M 195.558594 387.074219 C 195.070312 391.203125 194.671875 391.601562 190.542969 392.089844 C 190.550781 392.089844 190.558594 392.089844 190.566406 392.09375 C 194.675781 392.578125 195.070312 392.984375 195.558594 397.105469 C 196.046875 392.972656 196.441406 392.578125 200.574219 392.089844 C 196.441406 391.601562 196.046875 391.203125 195.558594 387.074219 Z M 195.558594 387.074219 " fill-opacity="1" fill-rule="nonzero"/></g></svg>